<svg width="1316" height="153" viewBox="0 0 1316 153" fill="none" xmlns="http://www.w3.org/2000/svg">
<path d="M32.2891 76.2821L131.338 152.782H108.212C102.103 152.782 96.6491 150.893 91.8494 147.115L0 76.2821L91.8494 5.44871C96.6491 1.81624 102.031 0 107.994 0H131.338L32.2891 76.2821Z" fill="black"/>
<path d="M308.458 0L386.344 152.782H274.423L284.023 133.603H354.709L297.549 21.5769L230.571 152.782H208.536L281.841 9.15385C283.295 6.39316 285.332 4.21368 287.95 2.61539C290.713 0.871797 293.695 0 296.895 0H308.458Z" fill="black"/>
<path d="M564.217 66.9103C576.144 66.9103 586.252 71.1239 594.542 79.5513C602.978 87.9786 607.196 98.1496 607.196 110.064C607.196 121.833 602.978 131.932 594.542 140.359C586.252 148.786 576.144 153 564.217 153L465.168 152.782H464.513V143.628C464.513 140.868 465.459 138.543 467.35 136.654C469.386 134.62 471.786 133.603 474.549 133.603H565.744C571.998 133.312 577.234 130.915 581.452 126.41C585.816 121.761 587.997 116.239 587.997 109.846C587.997 103.308 585.67 97.7137 581.016 93.0641C576.362 88.4145 570.762 86.0897 564.217 86.0897H563.781C561.017 86.0897 558.69 85.1453 556.799 83.2564C554.908 81.2222 553.963 78.8248 553.963 76.0641V66.9103H564.217ZM505.529 85.8718C497.675 85.8718 490.403 83.9829 483.712 80.2051C477.167 76.2821 472.004 71.0513 468.222 64.5128C464.441 57.9744 462.55 50.7821 462.55 42.9359C462.55 31.0214 466.695 20.9231 474.986 12.641C483.422 4.21368 493.603 0 505.529 0C505.966 0 506.475 0 507.057 0H601.088V9.15385C601.088 10.4615 600.797 11.7692 600.215 13.0769C599.779 14.2393 599.124 15.2564 598.251 16.1282C597.379 17 596.288 17.7265 594.979 18.3077C593.815 18.7436 592.579 18.9615 591.27 18.9615H505.529V19.1795C498.984 19.1795 493.385 21.5043 488.73 26.1538C484.076 30.8034 481.749 36.3974 481.749 42.9359C481.749 49.4744 484.076 55.0684 488.73 59.718C493.385 64.3675 498.984 66.6923 505.529 66.6923V66.9103H505.748C507.638 66.9103 509.311 67.3462 510.765 68.218C512.365 69.0897 513.602 70.3248 514.474 71.9231C515.347 73.3761 515.783 74.9744 515.783 76.718V85.8718H505.529Z" fill="black"/>
<path d="M789.661 0C801.588 0 811.696 4.21368 819.987 12.641C828.422 20.9231 832.64 31.0214 832.64 42.9359C832.64 54.8504 828.422 65.0214 819.987 73.4487C811.696 81.7308 801.588 85.8718 789.661 85.8718H706.538V142.756C706.538 145.517 705.52 147.915 703.484 149.949C701.593 151.838 699.266 152.782 696.503 152.782H686.685V66.9103H789.661V66.6923C796.206 66.6923 801.806 64.3675 806.46 59.718C811.114 55.0684 813.441 49.4744 813.441 42.9359C813.441 36.3974 811.114 30.8034 806.46 26.1538C801.806 21.5043 796.206 19.1795 789.661 19.1795V18.9615H700.212C696.43 18.9615 693.23 17.6538 690.612 15.0385C687.994 12.4231 686.685 9.22649 686.685 5.44871V0H788.352C788.788 0 789.225 0 789.661 0Z" fill="black"/>
<path d="M1046.93 133.603C1048.38 133.603 1049.69 133.893 1050.85 134.474C1052.16 135.056 1053.25 135.782 1054.13 136.654C1055 137.526 1055.65 138.615 1056.09 139.923C1056.67 141.085 1056.96 142.321 1056.96 143.628V152.782H912.098V133.603H1046.93ZM1054.78 9.15385C1054.78 10.8974 1054.34 12.5684 1053.47 14.1667C1052.6 15.6197 1051.36 16.7821 1049.76 17.6539C1048.31 18.5256 1046.64 18.9615 1044.75 18.9615H912.098V0H1054.78V9.15385ZM1041.47 76.0641C1041.47 78.6795 1040.45 81.0043 1038.42 83.0385C1036.53 84.9274 1034.2 85.8718 1031.44 85.8718H912.098V66.9103H1041.47V76.0641Z" fill="black"/>
<path d="M1191.86 43.3718C1189.97 45.2607 1187.64 46.2051 1184.88 46.2051C1182.12 46.2051 1179.72 45.2607 1177.68 43.3718L1133.39 0H1152.59C1157.68 0 1161.97 1.74359 1165.46 5.23077L1198.19 37.2692L1191.86 43.3718ZM1316 0L1238.11 76.2821L1316 152.782H1297.02C1291.93 152.782 1287.57 151.038 1283.93 147.551L1224.59 89.359L1165.46 147.551C1161.83 151.038 1157.46 152.782 1152.37 152.782H1133.39L1169.17 117.692C1169.17 117.692 1207.42 80.2051 1283.93 5.23077C1287.42 1.74359 1291.71 0 1296.8 0H1316Z" fill="black"/>
</svg>
